<svg xmlns="http://www.w3.org/2000/svg" width="854.102" height="97.156" viewBox="0 0 854.102 97.156">
  <path id="waves" d="M1.466,82.762l21.8-1.954c23.267-2.176,69.8-5.994,116.333-6.108,46.533.115,93.067,3.932,139.6,16.263,46.533,12.1,93.067,32.717,139.6,32.6,46.533.115,93.067-20.5,139.6-28.517s93.067-4.2,116.333-2.023l19.235,2.023,98.346,21.159c-47.845,48.837-164.793,49.516-185.112,52.139-13.243,1.71-30.049,0-48.8,0H139.6c-15.046,0-32.349,1.669-47.421,0-5.839-.646-149.424,6.44-152.494,0C-61.58,165.693,1.466,82.762,1.466,82.762Z" transform="translate(60.796 -74.2)" fill="rgba(206,140,105,0.5)" stroke="rgba(112,112,112,0)" stroke-width="1"/>
</svg>
